# xmcd
#
# Track frame offsets:
#	182
#	13600
#	28837
#	44275
#	59300
#	72630
#	88605
#	100245
#	115487
#	131500
#	147125
#	166025
#	180300
#	196137
#	213920
#	226365
#
# Disc length: 3258 seconds
#
# Revision: 4
# Processed by: cddbd v1.5.2PL0 Copyright (c) Steve Scherf et al.
# Submitted via: audiograbber 1.83.01
#
DISCID=d80cb810
DTITLE=Various Artist - Affenstarke Deutsche Schlagerparade (Media Markt)
DYEAR=1993
DGENRE=Schlager
TTITLE0=Costa Cordalis - Es stieg ein Engel vom Olymp
TTITLE1=Chris Wolf - Ich lieb  dich sowieso
TTITLE2=Demis Roussos - Schönes Mädchen von Arcadia
TTITLE3=Tommy Steiner - Ganz allein
TTITLE4=Cindy and Bert - Spaniens Gitarren
TTITLE5=Bernd Clüver - Mexican Girl
TTITLE6=Ivo Robic - Morgen
TTITLE7=Peter Orloff - Immer wenn ich Josy seh
TTITLE8=Ulli Martin - Ich träume mit offenen Augen von Dir
TTITLE9=Vicky Leandros - Die Bouzouki
TTITLE10=Goombay Dance Band - Von Hawaii bis Tome
TTITLE11=Original Nilsen Brothers - Aber Dich gibts nur einmal für mich
TTITLE12=Rex Gildo - Der letzte Sirtaki
TTITLE13=Ulli Martin - Monika
TTITLE14=Manuela - Schuld war nur der Bossa Nova
TTITLE15=Jürgen Marcus - Ein Festival der Liebe
EXTD=
EXTT0=Costa Cordali
EXTT1=Chris Wolf
EXTT2=Demis Roussos
EXTT3=Tom Steiner
EXTT4=Cindy and Bert
EXTT5=Bern Cl ver
EXTT6=Ivo Robic
EXTT7=Peter Orloff
EXTT8=Ulli Martin
EXTT9=Vicky Leandros
EXTT10=Goombay Dance Band
EXTT11=Original Nilsen Brothers
EXTT12=Rex Gildo
EXTT13=Ulli Martin
EXTT14=Manuela
EXTT15=J rgen Marcus
PLAYORDER=
